<svg width="22" height="29" viewBox="0 0 22 29" fill="none" xmlns="http://www.w3.org/2000/svg">
<path d="M10.5453 0C5.009 0 0 4.24447 0 10.8089C0 15.0006 3.22949 19.9306 9.67528 25.5986C10.1498 26.0205 10.9539 26.0205 11.4284 25.5986C17.861 19.9306 21.0905 15.0006 21.0905 10.8089C21.0905 4.24447 16.0815 0 10.5453 0Z" fill="#327ABD"/>
<line x1="2" y1="28" x2="19" y2="28" stroke="#37393B" stroke-width="2"/>
<circle cx="10.5" cy="10.5" r="5.5" fill="white"/>
<path d="M14 9.82812C14 10.4036 13.7018 10.9896 13.1055 11.5859L10.6719 13.9297C10.625 13.9766 10.5677 14 10.5 14C10.4323 14 10.375 13.9766 10.3281 13.9297L7.89062 11.5781C7.86458 11.5573 7.82877 11.5234 7.7832 11.4766C7.73763 11.4297 7.66536 11.3444 7.56641 11.2207C7.46745 11.097 7.37891 10.97 7.30078 10.8398C7.22266 10.7096 7.15299 10.5521 7.0918 10.3672C7.0306 10.1823 7 10.0026 7 9.82812C7 9.25521 7.16536 8.80729 7.49609 8.48437C7.82682 8.16146 8.28385 8 8.86719 8C9.02864 8 9.19336 8.02799 9.36133 8.08398C9.52929 8.13997 9.68554 8.21549 9.83007 8.31055C9.97461 8.4056 10.099 8.49479 10.2031 8.57812C10.3073 8.66146 10.4062 8.75 10.5 8.84375C10.5937 8.75 10.6927 8.66146 10.7969 8.57812C10.901 8.49479 11.0254 8.4056 11.1699 8.31055C11.3144 8.21549 11.4707 8.13997 11.6387 8.08398C11.8066 8.02799 11.9713 8 12.1328 8C12.7161 8 13.1732 8.16146 13.5039 8.48437C13.8346 8.80729 14 9.25521 14 9.82812Z" fill="#E11F5C"/>
</svg>
