<svg width="98" height="98" viewBox="0 0 98 98" fill="none" xmlns="http://www.w3.org/2000/svg">
<rect opacity="0.01" width="98" height="98" fill="white"/>
<path d="M48.7601 10.8181C34.186 10.8181 21 21.9915 21 39.2722C21 50.3068 29.5015 63.2847 46.4699 78.2057C47.7191 79.3161 49.8358 79.3161 51.085 78.2057C68.0186 63.2847 76.5202 50.3068 76.5202 39.2722C76.5202 21.9915 63.3341 10.8181 48.7601 10.8181Z" fill="#327ABD"/>
<rect x="26.2865" y="83.4531" width="44.6615" height="3.82812" fill="white"/>
<circle cx="48.6409" cy="38.459" r="14.4786" fill="white"/>
<path d="M57.8545 36.6904C57.8545 38.2054 57.0696 39.7479 55.4997 41.3178L49.0933 47.4876C48.9699 47.611 48.8191 47.6727 48.6409 47.6727C48.4626 47.6727 48.3118 47.611 48.1884 47.4876L41.7718 41.2972C41.7032 41.2424 41.609 41.1533 41.489 41.0299C41.369 40.9065 41.1788 40.6819 40.9183 40.3563C40.6578 40.0307 40.4247 39.6965 40.219 39.3537C40.0134 39.0109 39.83 38.5962 39.6689 38.1095C39.5078 37.6227 39.4272 37.1497 39.4272 36.6904C39.4272 35.1822 39.8626 34.0031 40.7332 33.153C41.6038 32.303 42.8069 31.8779 44.3425 31.8779C44.7676 31.8779 45.2012 31.9516 45.6434 32.099C46.0855 32.2464 46.4969 32.4452 46.8773 32.6954C47.2578 32.9457 47.5851 33.1805 47.8594 33.3998C48.1336 33.6192 48.3941 33.8523 48.6409 34.0991C48.8877 33.8523 49.1482 33.6192 49.4224 33.3998C49.6966 33.1805 50.0239 32.9457 50.4044 32.6954C50.7849 32.4452 51.1962 32.2464 51.6384 32.099C52.0806 31.9516 52.5142 31.8779 52.9392 31.8779C54.4748 31.8779 55.6779 32.303 56.5485 33.153C57.4192 34.0031 57.8545 35.1822 57.8545 36.6904Z" fill="#E11F5C"/>
</svg>
